<svg xmlns="http://www.w3.org/2000/svg" viewBox="0 0 900 520">
  <rect width="900" height="520" fill="#f8fafc"/>
  <g fill="#fff" stroke="#d9dee8" stroke-width="4">
    <rect x="100" y="92" width="190" height="130" rx="16"/>
    <rect x="355" y="92" width="190" height="130" rx="16"/>
    <rect x="610" y="92" width="190" height="130" rx="16"/>
    <rect x="100" y="298" width="190" height="130" rx="16"/>
    <rect x="355" y="298" width="190" height="130" rx="16"/>
    <rect x="610" y="298" width="190" height="130" rx="16"/>
  </g>
  <g fill="#0f766e">
    <rect x="130" y="128" width="130" height="18" rx="9"/>
    <rect x="385" y="128" width="130" height="18" rx="9"/>
    <rect x="640" y="128" width="130" height="18" rx="9"/>
  </g>
  <g fill="#d9dee8">
    <rect x="130" y="166" width="96" height="14" rx="7"/>
    <rect x="385" y="166" width="96" height="14" rx="7"/>
    <rect x="640" y="166" width="96" height="14" rx="7"/>
    <rect x="130" y="334" width="130" height="18" rx="9"/>
    <rect x="385" y="334" width="130" height="18" rx="9"/>
    <rect x="640" y="334" width="130" height="18" rx="9"/>
  </g>
</svg>
