<svg xmlns="http://www.w3.org/2000/svg" viewBox="0 0 1200 780">
  <rect width="1200" height="780" fill="#f8fafc"/>
  <rect x="96" y="86" width="790" height="510" rx="28" fill="#ffffff" stroke="#cbd5e1" stroke-width="3"/>
  <rect x="140" y="132" width="278" height="36" rx="18" fill="#111827"/>
  <rect x="140" y="216" width="292" height="150" rx="18" fill="#0f8b8d"/>
  <rect x="466" y="216" width="326" height="150" rx="18" fill="#e8f4f4" stroke="#99d2d0" stroke-width="2"/>
  <rect x="140" y="406" width="652" height="52" rx="12" fill="#eef2f7"/>
  <rect x="140" y="480" width="520" height="52" rx="12" fill="#eef2f7"/>
  <circle cx="980" cy="270" r="126" fill="#111827"/>
  <path d="M916 284c44-82 92-82 128 0" fill="none" stroke="#ffffff" stroke-width="24" stroke-linecap="round"/>
  <path d="M954 342h58" stroke="#0f8b8d" stroke-width="24" stroke-linecap="round"/>
  <rect x="818" y="430" width="260" height="172" rx="24" fill="#ffffff" stroke="#cbd5e1" stroke-width="3"/>
  <path d="M858 490h180M858 536h132" stroke="#111827" stroke-width="18" stroke-linecap="round"/>
  <path d="M206 290h154M526 290h196" stroke="#ffffff" stroke-width="20" stroke-linecap="round"/>
  <circle cx="730" cy="512" r="68" fill="#d98f28"/>
  <path d="M700 512h60M730 482v60" stroke="#ffffff" stroke-width="16" stroke-linecap="round"/>
</svg>
